<?xml version="1.0" encoding="utf-8"?>
<!-- Generator: Adobe Illustrator 19.1.0, SVG Export Plug-In . SVG Version: 6.00 Build 0)  -->
<svg version="1.1" xmlns="http://www.w3.org/2000/svg" xmlns:xlink="http://www.w3.org/1999/xlink" x="0px" y="0px"
	 viewBox="0 0 960 560" style="enable-background:new 0 0 960 560;" xml:space="preserve">
<style type="text/css">
	.st0{fill:#FFFFFF;stroke:#000000;stroke-width:4;stroke-linecap:round;stroke-linejoin:round;stroke-miterlimit:10;}
	.st1{stroke:#000000;stroke-miterlimit:10;}
	.st2{fill:none;stroke:#000000;stroke-width:4;stroke-linecap:round;stroke-linejoin:round;stroke-miterlimit:10;}
	.st3{fill:#040000;stroke:#000000;stroke-width:0.5;stroke-miterlimit:10;}
	.st4{fill:#FFFFFF;}
	.st5{display:none;}
	
		.st6{display:inline;fill:#050505;stroke:#000000;stroke-width:0.25;stroke-linecap:round;stroke-linejoin:round;stroke-miterlimit:10;}
	.st7{display:inline;}
	
		.st8{display:inline;fill:#FFFFFF;stroke:#000000;stroke-width:4;stroke-linecap:round;stroke-linejoin:round;stroke-miterlimit:10;}
	.st9{display:inline;stroke:#000000;stroke-miterlimit:10;}
	.st10{font-family:'RTWSShangGoG0v1-ExLightCom-GBpc-EUC-H';}
	.st11{font-size:89.3333px;}
	
		.st12{display:inline;fill:#FFFFFF;stroke:#000000;stroke-width:2;stroke-linecap:round;stroke-linejoin:round;stroke-miterlimit:10;}
</style>
<g id="图层_5">
	<polyline class="st0" points="398.8,371.6 490.8,371.6 490.8,271.8 468.8,271.8 	"/>
	<circle class="st1" cx="594.3" cy="328.6" r="8.4"/>
	<polyline class="st2" points="504.9,270.7 504.9,371.8 554.5,371.8 594.3,269.3 631.7,371.8 796.3,371.8 	"/>
	<polyline class="st3" points="666.7,371.8 666.7,270.7 728.3,270.7 728.3,310.6 686.2,310.6 	"/>
	<polyline class="st3" points="686.2,321.3 728.3,321.3 728.3,369.5 	"/>
	<g>
		<path class="st4" d="M195,370.1c0,0,0-45.6,0-103.9s34-92.7,76.7-92.7s83.3-5,83.3,83c0,38.8-12,113.6-121.5,113.6v-69.7"/>
		<path d="M195,370.1c-0.9-11.9-1.6-23.7-2.3-35.6c-0.3-5.9-0.7-11.9-1-17.8c-0.3-5.9-0.6-11.9-0.8-17.8l-0.8-17.8l-0.4-8.9
			l-0.2-4.5l0-1.1l0-1.2l0-2.2l0-2.2l0-2.3c0.1-1.6,0-3.2,0.2-4.7c0.1-1.5,0.2-3.1,0.3-4.6l0.5-4.6c0.8-6.2,2-12.4,3.8-18.4
			c1.8-6.1,4.1-12,7.1-17.7c3-5.7,6.6-11.1,10.8-16.1c4.3-5,9.2-9.4,14.6-13.2c5.4-3.8,11.3-6.9,17.6-9.2c6.2-2.3,12.7-3.8,19.3-4.5
			c1.6-0.1,3.3-0.3,4.9-0.4l2.5-0.1c0.8,0,1.5,0,2.3,0l8.9-0.1c6-0.1,12.1-0.1,18.4,0.3c6.3,0.4,12.9,1.2,19.4,3.2
			c6.6,1.9,13.2,5.1,18.9,9.7c5.7,4.6,10.2,10.4,13.4,16.4c3.2,6.1,5.4,12.4,7,18.7c1.6,6.3,2.6,12.5,3.2,18.8
			c0.6,6.2,0.9,12.4,1,18.5c0,1.5,0,3.1,0,4.6l0,2.3l0,2.3c-0.1,3.1-0.2,6.2-0.5,9.4c-1,12.4-3.3,24.9-7.7,36.9
			c-4.4,11.9-10.8,23.4-19.4,33c-2.1,2.4-4.4,4.7-6.8,6.9c-2.4,2.2-4.9,4.2-7.4,6.1c-2.6,1.9-5.2,3.6-8,5.3
			c-2.7,1.6-5.5,3.1-8.4,4.5c-5.7,2.8-11.6,4.9-17.5,6.6c-6,1.7-12,3-18.1,3.9c-12.1,1.8-24.3,2.1-36.4,1.6l-0.3,0
			c-1.8-0.1-3.3-1.6-3.2-3.5l0.7-17.4l0.8-17.4l0.4-8.7l0.5-8.7c0.3-5.8,0.6-11.6,1-17.4c0.4,5.8,0.7,11.6,1,17.4l0.5,8.7l0.4,8.7
			l0.8,17.4l0.7,17.4l-3.5-3.5c11.7-0.6,23.3-2,34.5-4.5c11.2-2.6,22-6.4,31.7-11.8c9.8-5.4,18.4-12.5,25.2-20.9
			c6.8-8.5,11.9-18.3,15.3-28.8c3.4-10.5,5.2-21.6,5.8-32.8c0.1-2.8,0.2-5.6,0.2-8.4l0-2.1l0-2.1c0-1.4,0-2.9-0.1-4.3
			c-0.2-5.7-0.5-11.4-1.2-17c-0.7-5.6-1.6-11.1-2.9-16.3c-1.3-5.2-3.1-10.2-5.5-14.6c-2.4-4.4-5.3-8.1-8.9-11.1
			c-3.6-2.9-7.8-5.1-12.6-6.5c-4.8-1.4-10.1-2.2-15.6-2.7c-5.5-0.4-11.3-0.5-17.1-0.6l-8.9,0c-0.7,0-1.5,0-2.2,0l-2,0
			c-1.3,0-2.6,0.1-4,0.2c-5.3,0.4-10.4,1.5-15.4,3.1c-5,1.7-9.8,3.9-14.2,6.8c-4.4,2.9-8.5,6.3-12.1,10.2
			c-7.4,7.7-12.8,17.5-16.6,27.9c-3.8,10.4-5.8,21.7-6.4,33.1l-1.5,35.5c-0.3,5.9-0.5,11.9-0.8,17.8c-0.3,5.9-0.6,11.9-1,17.8
			C196.6,346.3,195.9,358.2,195,370.1z"/>
	</g>
	<line class="st0" x1="398.8" y1="264.5" x2="398.8" y2="370.1"/>
	<circle class="st1" cx="398.8" cy="232.3" r="7.7"/>
</g>
<g id="图层_7" class="st5">
	<polygon class="st6" points="457,269.6 428.5,269.6 456.5,302.6 	"/>
</g>
<g id="图层_6" class="st5">
	<g class="st7">
		<path class="st4" d="M159,370.1c0,0,0-45.6,0-103.9s34-92.7,76.7-92.7s83.3-5,83.3,83c0,38.8-12,113.6-121.5,113.6v-69.7"/>
		<path d="M159,370.1c-0.9-11.9-1.6-23.7-2.3-35.6c-0.3-5.9-0.7-11.9-1-17.8c-0.3-5.9-0.6-11.9-0.8-17.8l-0.8-17.8l-0.4-8.9
			l-0.2-4.5l0-1.1l0-1.2l0-2.2l0-2.2l0-2.3c0.1-1.6,0-3.2,0.2-4.7c0.1-1.5,0.2-3.1,0.3-4.6l0.5-4.6c0.8-6.2,2-12.4,3.8-18.4
			c1.8-6.1,4.1-12,7.1-17.7c3-5.7,6.6-11.1,10.8-16.1c4.3-5,9.2-9.4,14.6-13.2c5.4-3.8,11.3-6.9,17.6-9.2c6.2-2.3,12.7-3.8,19.3-4.5
			c1.6-0.1,3.3-0.3,4.9-0.4l2.5-0.1c0.8,0,1.5,0,2.3,0l8.9-0.1c6-0.1,12.1-0.1,18.4,0.3c6.3,0.4,12.9,1.2,19.4,3.2
			c6.6,1.9,13.2,5.1,18.9,9.7c5.7,4.6,10.2,10.4,13.4,16.4c3.2,6.1,5.4,12.4,7,18.7c1.6,6.3,2.6,12.5,3.2,18.8
			c0.6,6.2,0.9,12.4,1,18.5c0,1.5,0,3.1,0,4.6l0,2.3l0,2.3c-0.1,3.1-0.2,6.2-0.5,9.4c-1,12.4-3.3,24.9-7.7,36.9
			c-4.4,11.9-10.8,23.4-19.4,33c-2.1,2.4-4.4,4.7-6.8,6.9c-2.4,2.2-4.9,4.2-7.4,6.1c-2.6,1.9-5.2,3.6-8,5.3
			c-2.7,1.6-5.5,3.1-8.4,4.5c-5.7,2.8-11.6,4.9-17.5,6.6c-6,1.7-12,3-18.1,3.9c-12.1,1.8-24.3,2.1-36.4,1.6l-0.3,0
			c-1.8-0.1-3.3-1.6-3.2-3.5l0.7-17.4l0.8-17.4l0.4-8.7l0.5-8.7c0.3-5.8,0.6-11.6,1-17.4c0.4,5.8,0.7,11.6,1,17.4l0.5,8.7l0.4,8.7
			l0.8,17.4l0.7,17.4l-3.5-3.5c11.7-0.6,23.3-2,34.5-4.5c11.2-2.6,22-6.4,31.7-11.8c9.8-5.4,18.4-12.5,25.2-20.9
			c6.8-8.5,11.9-18.3,15.3-28.8c3.4-10.5,5.2-21.6,5.8-32.8c0.1-2.8,0.2-5.6,0.2-8.4l0-2.1l0-2.1c0-1.4,0-2.9-0.1-4.3
			c-0.2-5.7-0.5-11.4-1.2-17c-0.7-5.6-1.6-11.1-2.9-16.3c-1.3-5.2-3.1-10.2-5.5-14.6c-2.4-4.4-5.3-8.1-8.9-11.1
			c-3.6-2.9-7.8-5.1-12.6-6.5c-4.8-1.4-10.1-2.2-15.6-2.7c-5.5-0.4-11.3-0.5-17.1-0.6l-8.9,0c-0.7,0-1.5,0-2.2,0l-2,0
			c-1.3,0-2.6,0.1-4,0.2c-5.3,0.4-10.4,1.5-15.4,3.1c-5,1.7-9.8,3.9-14.2,6.8c-4.4,2.9-8.5,6.3-12.1,10.2
			c-7.4,7.7-12.8,17.5-16.6,27.9c-3.8,10.4-5.8,21.7-6.4,33.1l-1.5,35.5c-0.3,5.9-0.5,11.9-0.8,17.8c-0.3,5.9-0.6,11.9-1,17.8
			C160.6,346.3,159.9,358.2,159,370.1z"/>
	</g>
	<line class="st8" x1="362.8" y1="264.5" x2="362.8" y2="370.1"/>
	<circle class="st9" cx="362.8" cy="232.3" r="7.7"/>
	<polyline class="st8" points="432.8,300.4 454.8,300.4 454.8,371.6 362.8,371.6 	"/>
	<polyline class="st8" points="492,300.4 469.9,300.4 469.9,371.6 806.9,371.6 	"/>
	<polyline class="st8" points="528.8,317 558.1,287 558.1,371.6 	"/>
	<line class="st8" x1="581" y1="287" x2="622.9" y2="287"/>
	<line class="st8" x1="581" y1="287" x2="581" y2="371.6"/>
	<line class="st8" x1="585.2" y1="314.6" x2="613.7" y2="314.6"/>
	<line class="st8" x1="585.8" y1="339.1" x2="622.9" y2="339.1"/>
	<line class="st8" x1="705.1" y1="272.7" x2="705.1" y2="286.2"/>
	<polyline class="st8" points="668,300.4 668,286.2 747,286.2 747,300.4 	"/>
	<line class="st8" x1="683.8" y1="303.6" x2="729.7" y2="303.6"/>
	<polyline class="st8" points="705.1,304.6 683.8,325.7 729.7,325.7 729.7,318.6 	"/>
	<line class="st8" x1="683.8" y1="347" x2="729.7" y2="347"/>
	<line class="st8" x1="706.7" y1="328.1" x2="707.5" y2="371.6"/>
	<circle class="st9" cx="581" cy="274" r="5.4"/>
</g>
<g id="图层_3" class="st5">
	<text transform="matrix(1 0 0 1 446.667 357.3969)" class="st7 st10 st11">工作室</text>
</g>
<g id="图层_4" class="st5">
	<polyline class="st12" points="362.8,200.1 362.8,173.4 336.4,173.4 	"/>
	<polyline class="st12" points="124.3,368.1 124.3,394.7 150.7,394.7 	"/>
</g>
</svg>
