<?xml version="1.0" encoding="utf-8"?>
<!-- Generator: Adobe Illustrator 19.1.0, SVG Export Plug-In . SVG Version: 6.00 Build 0)  -->
<svg version="1.1" xmlns="http://www.w3.org/2000/svg" xmlns:xlink="http://www.w3.org/1999/xlink" x="0px" y="0px"
	 viewBox="0 0 960 336" style="enable-background:new 0 0 960 336;" xml:space="preserve">
<style type="text/css">
	.st0{fill:#FFFFFF;stroke:#000000;stroke-width:4;stroke-linecap:round;stroke-linejoin:round;stroke-miterlimit:10;}
	.st1{stroke:#000000;stroke-miterlimit:10;}
	.st2{fill:none;stroke:#000000;stroke-width:4;stroke-linecap:round;stroke-linejoin:round;stroke-miterlimit:10;}
	.st3{fill:#040000;stroke:#000000;stroke-width:0.5;stroke-miterlimit:10;}
	.st4{fill:#FFFFFF;}
	.st5{fill:#050505;stroke:#000000;stroke-width:0.25;stroke-linecap:round;stroke-linejoin:round;stroke-miterlimit:10;}
	.st6{display:none;}
	.st7{display:inline;}
	
		.st8{display:inline;fill:#FFFFFF;stroke:#000000;stroke-width:4;stroke-linecap:round;stroke-linejoin:round;stroke-miterlimit:10;}
	.st9{display:inline;stroke:#000000;stroke-miterlimit:10;}
	.st10{font-family:'RTWSShangGoG0v1-ExLightCom-GBpc-EUC-H';}
	.st11{font-size:89.3333px;}
	
		.st12{display:inline;fill:#FFFFFF;stroke:#000000;stroke-width:2;stroke-linecap:round;stroke-linejoin:round;stroke-miterlimit:10;}
</style>
<g id="图层_5">
	<polyline class="st0" points="329.1,328.6 474.7,328.6 474.7,170.7 439.9,170.7 	"/>
	<circle class="st1" cx="638.4" cy="260.6" r="13.2"/>
	<polyline class="st2" points="496.9,169.1 496.9,329 575.4,329 638.4,166.8 697.6,329 958,329 	"/>
	<polyline class="st3" points="753,329 753,169.1 850.4,169.1 850.4,232.1 783.8,232.1 	"/>
	<polyline class="st3" points="783.8,249 850.4,249 850.4,325.4 	"/>
	<g>
		<path class="st4" d="M6.8,326.2c0,0,0-72.1,0-164.3S60.5,15.3,128,15.3s131.8-7.9,131.8,131.3c0,61.3-19,179.6-192.2,179.6V216"/>
		<path d="M6.8,326.2c-0.9-18.8-1.6-37.6-2.3-56.3c-0.7-18.8-1.2-37.6-1.8-56.3l-0.4-14.1l-0.3-14.1l-0.3-14.1l-0.2-7l-0.1-3.6
			l0-3.5c0-9.7,0.5-19.3,1.8-28.9c1.3-9.6,3.3-19.1,6.2-28.5c2.8-9.4,6.6-18.5,11.2-27.2c4.6-8.7,10.2-17,16.8-24.5
			c13.1-15.1,30.1-27.1,49.1-33.9c9.5-3.4,19.4-5.7,29.4-6.7c2.5-0.3,5-0.4,7.5-0.5c1.3-0.1,2.5-0.1,3.8-0.1l3.6,0l14.1-0.2
			c9.4-0.1,19-0.1,28.8,0.6c9.7,0.6,19.7,1.9,29.6,4.8c9.9,2.9,19.7,7.6,28,14.4c8.3,6.8,15,15.3,19.9,24.4
			c4.9,9.1,8.2,18.7,10.7,28.3c2.4,9.6,4,19.3,5,29c1,9.7,1.5,19.3,1.7,28.9c0.1,2.4,0.1,4.8,0.1,7.2l0,3.6l-0.1,3.6
			c-0.1,4.9-0.3,9.7-0.7,14.5c-1.5,19.3-5,38.7-11.7,57.2c-3.3,9.2-7.4,18.2-12.3,26.8c-2.4,4.3-5.1,8.5-8,12.5
			c-2.9,4-5.9,7.9-9.2,11.6c-3.3,3.7-6.7,7.2-10.3,10.6c-3.6,3.3-7.4,6.5-11.3,9.5c-3.9,2.9-8,5.7-12.2,8.3c-4.2,2.5-8.5,4.9-12.9,7
			c-2.2,1.1-4.4,2.1-6.6,3.1c-2.3,0.9-4.5,1.9-6.8,2.7l-3.4,1.3c-1.1,0.4-2.3,0.8-3.4,1.2c-2.3,0.8-4.6,1.5-6.9,2.2
			c-9.2,2.8-18.7,4.9-28.1,6.4c-18.9,3.1-38,3.9-57,3.4l-0.2,0c-1.9-0.1-3.3-1.6-3.3-3.5l0.7-27.6l0.8-27.6l0.4-13.8l0.5-13.8
			c0.3-9.2,0.6-18.4,1-27.6c0.4,9.2,0.7,18.4,1,27.6l0.5,13.8l0.4,13.8l0.8,27.6l0.7,27.6l-3.5-3.5c18.6-0.6,37.1-2.5,55.1-6.3
			c18-3.8,35.4-9.8,51.3-18.3c15.9-8.5,30.1-19.9,41.4-33.6c11.3-13.7,19.8-29.7,25.4-46.7c2.8-8.5,5-17.2,6.6-26.1
			c1.6-8.9,2.6-17.9,3.2-27c0.3-4.5,0.4-9.1,0.5-13.6l0-3.4l0-3.4c0-2.3-0.1-4.6-0.1-6.9c-0.3-9.2-0.8-18.3-1.9-27.3
			c-1-9-2.5-17.9-4.7-26.5c-2.2-8.6-5.2-16.8-9.2-24.2c-4-7.4-9.1-14-15.4-19.1c-6.3-5.1-13.7-8.8-21.8-11.2
			c-4-1.2-8.3-2.1-12.6-2.8c-4.3-0.7-8.7-1.2-13.2-1.5c-9-0.7-18.2-0.8-27.5-0.8l-14.1,0l-3.5,0c-1.1,0-2.2,0-3.3,0
			c-2.2,0-4.4,0.2-6.5,0.4c-8.7,0.7-17.3,2.5-25.5,5.3C75.5,35.2,60.5,45,48.6,58.1C36.7,71,27.9,86.9,22,103.9
			c-5.9,17-8.9,35.2-9.7,53.4l-0.1,3.5l-0.1,3.5l-0.2,7l-0.3,14.1l-0.3,14.1l-0.4,14.1c-0.6,18.8-1,37.6-1.8,56.3
			C8.4,288.7,7.6,307.5,6.8,326.2z"/>
	</g>
	<line class="st0" x1="329.1" y1="159.3" x2="329.1" y2="326.2"/>
	<circle class="st1" cx="329.1" cy="108.3" r="12.1"/>
</g>
<g id="图层_7">
	<polygon class="st5" points="476.7,167.8 434.8,167.8 476,217.3 	"/>
</g>
<g id="图层_6" class="st6">
	<g class="st7">
		<path class="st4" d="M159,262.1c0,0,0-45.6,0-103.9s34-92.7,76.7-92.7s83.3-5,83.3,83c0,38.8-12,113.6-121.5,113.6v-69.7"/>
		<path d="M159,262.1c-0.9-11.9-1.6-23.7-2.3-35.6c-0.3-5.9-0.7-11.9-1-17.8c-0.3-5.9-0.6-11.9-0.8-17.8l-0.8-17.8l-0.4-8.9
			l-0.2-4.5l0-1.1l0-1.2l0-2.2l0-2.2l0-2.3c0.1-1.6,0-3.2,0.2-4.7c0.1-1.5,0.2-3.1,0.3-4.6l0.5-4.6c0.8-6.2,2-12.4,3.8-18.4
			c1.8-6.1,4.1-12,7.1-17.7c3-5.7,6.6-11.1,10.8-16.1c4.3-5,9.2-9.4,14.6-13.2c5.4-3.8,11.3-6.9,17.6-9.2c6.2-2.3,12.7-3.8,19.3-4.5
			c1.6-0.1,3.3-0.3,4.9-0.4l2.5-0.1c0.8,0,1.5,0,2.3,0l8.9-0.1c6-0.1,12.1-0.1,18.4,0.3c6.3,0.4,12.9,1.2,19.4,3.2
			c6.6,1.9,13.2,5.1,18.9,9.7c5.7,4.6,10.2,10.4,13.4,16.4c3.2,6.1,5.4,12.4,7,18.7c1.6,6.3,2.6,12.5,3.2,18.8
			c0.6,6.2,0.9,12.4,1,18.5c0,1.5,0,3.1,0,4.6l0,2.3l0,2.3c-0.1,3.1-0.2,6.2-0.5,9.4c-1,12.4-3.3,24.9-7.7,36.9
			c-4.4,11.9-10.8,23.4-19.4,33c-2.1,2.4-4.4,4.7-6.8,6.9c-2.4,2.2-4.9,4.2-7.4,6.1c-2.6,1.9-5.2,3.6-8,5.3
			c-2.7,1.6-5.5,3.1-8.4,4.5c-5.7,2.8-11.6,4.9-17.5,6.6c-6,1.7-12,3-18.1,3.9c-12.1,1.8-24.3,2.1-36.4,1.6l-0.3,0
			c-1.8-0.1-3.3-1.6-3.2-3.5l0.7-17.4l0.8-17.4l0.4-8.7l0.5-8.7c0.3-5.8,0.6-11.6,1-17.4c0.4,5.8,0.7,11.6,1,17.4l0.5,8.7l0.4,8.7
			l0.8,17.4l0.7,17.4l-3.5-3.5c11.7-0.6,23.3-2,34.5-4.5c11.2-2.6,22-6.4,31.7-11.8c9.8-5.4,18.4-12.5,25.2-20.9
			c6.8-8.5,11.9-18.3,15.3-28.8c3.4-10.5,5.2-21.6,5.8-32.8c0.1-2.8,0.2-5.6,0.2-8.4l0-2.1l0-2.1c0-1.4,0-2.9-0.1-4.3
			c-0.2-5.7-0.5-11.4-1.2-17c-0.7-5.6-1.6-11.1-2.9-16.3c-1.3-5.2-3.1-10.2-5.5-14.6c-2.4-4.4-5.3-8.1-8.9-11.1
			c-3.6-2.9-7.8-5.1-12.6-6.5c-4.8-1.4-10.1-2.2-15.6-2.7c-5.5-0.4-11.3-0.5-17.1-0.6l-8.9,0c-0.7,0-1.5,0-2.2,0l-2,0
			c-1.3,0-2.6,0.1-4,0.2c-5.3,0.4-10.4,1.5-15.4,3.1c-5,1.7-9.8,3.9-14.2,6.8c-4.4,2.9-8.5,6.3-12.1,10.2
			c-7.4,7.7-12.8,17.5-16.6,27.9c-3.8,10.4-5.8,21.7-6.4,33.1l-1.5,35.5c-0.3,5.9-0.5,11.9-0.8,17.8c-0.3,5.9-0.6,11.9-1,17.8
			C160.6,238.3,159.9,250.2,159,262.1z"/>
	</g>
	<line class="st8" x1="362.8" y1="156.5" x2="362.8" y2="262.1"/>
	<circle class="st9" cx="362.8" cy="124.3" r="7.7"/>
	<polyline class="st8" points="432.8,192.4 454.8,192.4 454.8,263.6 362.8,263.6 	"/>
	<polyline class="st8" points="492,192.4 469.9,192.4 469.9,263.6 806.9,263.6 	"/>
	<polyline class="st8" points="528.8,209 558.1,179 558.1,263.6 	"/>
	<line class="st8" x1="581" y1="179" x2="622.9" y2="179"/>
	<line class="st8" x1="581" y1="179" x2="581" y2="263.6"/>
	<line class="st8" x1="585.2" y1="206.6" x2="613.7" y2="206.6"/>
	<line class="st8" x1="585.8" y1="231.1" x2="622.9" y2="231.1"/>
	<line class="st8" x1="705.1" y1="164.7" x2="705.1" y2="178.2"/>
	<polyline class="st8" points="668,192.4 668,178.2 747,178.2 747,192.4 	"/>
	<line class="st8" x1="683.8" y1="195.6" x2="729.7" y2="195.6"/>
	<polyline class="st8" points="705.1,196.6 683.8,217.7 729.7,217.7 729.7,210.6 	"/>
	<line class="st8" x1="683.8" y1="239" x2="729.7" y2="239"/>
	<line class="st8" x1="706.7" y1="220.1" x2="707.5" y2="263.6"/>
	<circle class="st9" cx="581" cy="166" r="5.4"/>
</g>
<g id="图层_3" class="st6">
	<text transform="matrix(1 0 0 1 446.667 249.3969)" class="st7 st10 st11">工作室</text>
</g>
<g id="图层_4" class="st6">
	<polyline class="st12" points="362.8,92.1 362.8,65.4 336.4,65.4 	"/>
	<polyline class="st12" points="124.3,260.1 124.3,286.7 150.7,286.7 	"/>
</g>
</svg>
